<svg width="16" height="16" viewBox="0 0 16 16" fill="none" xmlns="http://www.w3.org/2000/svg"><g clip-path="url(#a)"><path d="M8 1.124a6.864 6.864 0 0 1 6.87 6.864A6.87 6.87 0 0 1 8 14.858a6.864 6.864 0 0 1-6.87-6.865A6.87 6.87 0 0 1 8 1.125" fill="#e74d89"/><path d="M8 15.346c-4.062 0-7.364-3.296-7.364-7.353C.636 3.932 3.938.635 8 .635s7.364 3.297 7.364 7.353S12.062 15.346 8 15.346m6.208-6.351c-.213-.07-1.945-.582-3.918-.27a27 27 0 0 1 1.22 4.475 6.25 6.25 0 0 0 2.698-4.205m-3.751 4.786c-.092-.552-.46-2.474-1.34-4.763a.1.1 0 0 1-.041.011c-3.55 1.237-4.821 3.694-4.936 3.924A6.27 6.27 0 0 0 8 14.276a6.15 6.15 0 0 0 2.457-.495M3.328 12.2c.144-.242 1.87-3.095 5.115-4.148.08-.029.167-.052.247-.075a16 16 0 0 0-.512-1.064c-3.141.938-6.19.897-6.466.892 0 .063-.006.126-.006.19A6.3 6.3 0 0 0 3.328 12.2M1.844 6.71c.282.006 2.87.018 5.817-.765-1.042-1.852-2.17-3.406-2.33-3.63A6.3 6.3 0 0 0 1.843 6.71m4.683-4.82c.173.23 1.318 1.783 2.348 3.676 2.238-.84 3.181-2.106 3.296-2.267A6.27 6.27 0 0 0 8 1.717c-.506 0-1.001.063-1.473.172m6.34 2.134c-.132.178-1.185 1.53-3.51 2.48a26 26 0 0 1 .559 1.23c2.094-.264 4.171.162 4.378.202a6.26 6.26 0 0 0-1.427-3.912" fill="#b2215a"/></g><defs><clipPath id="a"><path fill="#fff" d="M0 0h16v16H0z"/></clipPath></defs></svg>