<svg width="16" height="16" viewBox="0 0 16 16" fill="none" xmlns="http://www.w3.org/2000/svg"><path d="M5.503 11.07h1.924v1.924a1.925 1.925 0 0 1-3.848 0c0-1.062.862-1.924 1.924-1.924Z" fill="#0acf83" stroke="#0acf83" stroke-width="1.147"/><path d="M5.503 6.076h1.924v3.848H5.503a1.925 1.925 0 0 1 0-3.848Z" fill="#a259ff" stroke="#a259ff" stroke-width="1.147"/><path d="M5.503 1.082h1.924V4.93H5.503a1.925 1.925 0 0 1 0-3.848Z" fill="#f24e1e" stroke="#f24e1e" stroke-width="1.147"/><path d="M10.497 1.082a1.925 1.925 0 0 1 0 3.848H8.573V1.082z" fill="#ff7262" stroke="#ff7262" stroke-width="1.147"/><path d="M10.497 6.076a1.925 1.925 0 0 1 0 3.848 1.925 1.925 0 0 1 0-3.848Z" fill="#1abcfe" stroke="#1abcfe" stroke-width="1.147"/></svg>