<svg width="34" height="20" viewBox="0 0 34 20" fill="none" xmlns="http://www.w3.org/2000/svg">
<path d="M21.6221 0.00390625C26.2287 0.00441165 30.5598 6.98961 33.4453 9.90723C30.573 12.8117 26.2095 19.8188 21.6221 19.8193C18.9166 19.8193 16.7228 17.601 16.7227 14.8652C16.7229 12.1347 18.908 9.92036 21.6064 9.91211C18.9079 9.90386 16.7228 7.68861 16.7227 4.95801C16.7229 2.22233 18.9166 0.00390597 21.6221 0.00390625ZM11.8242 0C14.5294 0.000261806 16.7223 2.21771 16.7227 4.95312C16.7226 7.68398 14.5376 9.89913 11.8389 9.90723C14.5375 9.91532 16.7225 12.1306 16.7227 14.8613C16.7224 17.5968 14.5294 19.8152 11.8242 19.8154C7.21753 19.8151 2.8856 12.8298 0 9.91211C2.87234 7.00761 7.23668 0.000288365 11.8242 0Z" fill="#FF383C"/>
</svg>
