<svg width="32" height="32" viewBox="0 0 32 32" fill="none" xmlns="http://www.w3.org/2000/svg">
<path d="M20.8994 7.11682C21.7896 7.117 22.7331 7.45616 23.7344 8.09436C24.735 8.73229 25.7346 9.63194 26.7178 10.6598C27.6988 11.6855 28.6337 12.805 29.5195 13.8727C30.1434 14.6246 30.754 15.3599 31.3262 15.9977C30.7559 16.6335 30.1462 17.3676 29.5225 18.1188C28.6357 19.1866 27.699 20.3089 26.7158 21.3365C25.7308 22.3661 24.7297 23.268 23.7285 23.9078C22.7888 24.5083 21.9009 24.8438 21.0654 24.8834L20.8945 24.8864C18.7667 24.8835 17.0236 23.1356 17.0234 20.9557C17.0237 18.7784 18.763 17.0316 20.8877 17.025L21.3867 17.0231V14.9811L20.8877 14.9801C18.8316 14.9738 17.1368 13.3372 17.0293 11.2584L17.0225 11.0494H17.0234C17.0234 8.86777 18.7693 7.11696 20.8994 7.11682ZM11.1064 7.11292C13.2341 7.11569 14.9771 8.86391 14.9775 11.0436H14.9785L14.9717 11.2584C14.8619 13.3351 13.1674 14.9687 11.1133 14.9752L10.6143 14.9772V17.0192L11.1133 17.0211C13.2379 17.0278 14.9774 18.7745 14.9775 20.9518C14.9773 23.1331 13.232 24.8828 11.1025 24.8834C10.2121 24.8834 9.26805 24.5441 8.2666 23.9059C7.26594 23.268 6.26618 22.369 5.2832 21.3414C4.30218 20.3159 3.36756 19.1955 2.48145 18.1276C1.85686 17.3748 1.24555 16.6389 0.672852 16.0006C1.24319 15.3651 1.85441 14.633 2.47852 13.8815C3.36546 12.8135 4.30183 11.6914 5.28516 10.6637C6.27027 9.63418 7.27207 8.73331 8.27344 8.09338C9.21325 7.49295 10.1001 7.15635 10.9355 7.11682L10.9346 7.11584L11.1064 7.11292ZM6.05176 22.8004C6.17792 22.9164 6.30466 23.0297 6.43164 23.1403C6.30602 23.0309 6.18047 22.919 6.05566 22.8043L6.05176 22.8004ZM16.5742 20.2809C16.541 20.5009 16.5235 20.7262 16.5234 20.9557H16.5225C16.5225 20.7262 16.5407 20.5009 16.5742 20.2809ZM14.8848 18.7262C14.8906 18.7363 14.8966 18.7463 14.9023 18.7565C14.8966 18.7463 14.8906 18.7363 14.8848 18.7262ZM17.4355 18.2477C17.4504 18.2281 17.4662 18.2093 17.4814 18.1901C17.4662 18.2093 17.4505 18.2282 17.4355 18.2477ZM14.5186 18.1862C14.5339 18.2056 14.5494 18.225 14.5645 18.2448C14.5494 18.225 14.534 18.2056 14.5186 18.1862ZM11.7773 16.5729L11.9922 16.6129C11.8504 16.5832 11.706 16.561 11.5596 16.5455C11.6327 16.5532 11.7054 16.5616 11.7773 16.5729ZM20.8867 15.4801V16.525C20.8118 16.5253 20.7372 16.5278 20.6631 16.5319C20.7368 16.5278 20.8111 16.5253 20.8857 16.525V15.4791L20.8867 15.4801ZM20.0352 15.3932H20.0342H20.0352ZM12.0107 15.3776C11.9268 15.3956 11.8425 15.4133 11.7568 15.4264V15.4254C11.8424 15.4124 11.9269 15.3956 12.0107 15.3776ZM1.01074 14.8561C0.855374 15.0387 0.701201 15.2158 0.550781 15.3873C0.767695 15.14 0.989464 14.8791 1.2168 14.61L1.01074 14.8561ZM12.7539 15.1471C12.5192 15.2444 12.2743 15.3206 12.0215 15.3756C12.2743 15.3207 12.5192 15.2442 12.7539 15.1471ZM12.8467 15.1051C12.8212 15.1164 12.7962 15.1285 12.7705 15.1393C12.7962 15.1285 12.8212 15.1163 12.8467 15.1051ZM18.6367 14.8405C18.6134 14.8261 18.5904 14.8113 18.5674 14.7965C18.5905 14.8112 18.6134 14.8262 18.6367 14.8405ZM15.4551 11.4899C15.448 11.562 15.4391 11.6336 15.4287 11.7047C15.4392 11.6333 15.4479 11.5614 15.4551 11.4889V11.4899ZM16.5742 10.3737C16.541 10.594 16.5234 10.8196 16.5234 11.0494L16.5293 11.277L16.5283 11.276L16.5225 11.0485C16.5225 10.8189 16.5408 10.5936 16.5742 10.3737ZM17.1572 8.74866C17.1209 8.80948 17.0864 8.87157 17.0527 8.9342L16.9551 9.12561C17.0167 8.99638 17.084 8.87051 17.1572 8.74866Z" fill="#FF383C"/>
</svg>
