<svg width="16" height="16" viewBox="0 0 16 16" fill="none" xmlns="http://www.w3.org/2000/svg"><path d="M8.685 1.334c.75.001 1.13.005 1.46.015l.129.004c.15.005.297.012.475.02.709.033 1.193.145 1.618.31.44.17.81.399 1.18.77.37.37.6.742.77 1.18.164.425.277.91.31 1.619l.02.474.004.13c.01.328.014.709.015 1.459v1.37c0 .75-.005 1.13-.015 1.46l-.004.129c-.005.15-.012.297-.02.474-.033.71-.146 1.194-.31 1.619-.17.44-.4.81-.77 1.18s-.742.6-1.18.77c-.425.164-.91.276-1.619.31l-.474.02-.13.003c-.328.01-.708.015-1.459.016h-1.37c-.75-.001-1.13-.005-1.459-.015l-.13-.004c-.149-.005-.296-.012-.474-.02-.71-.033-1.193-.146-1.618-.31a3.3 3.3 0 0 1-1.182-.77 3.3 3.3 0 0 1-.768-1.18c-.165-.425-.277-.91-.31-1.619l-.02-.474-.004-.13a54 54 0 0 1-.016-1.459v-1.37c.001-.75.005-1.13.015-1.46l.004-.129.02-.474c.033-.71.146-1.194.31-1.619.17-.439.399-.81.77-1.18.37-.371.742-.6 1.18-.77.426-.165.909-.276 1.619-.31l.475-.02.129-.003c.328-.01.709-.015 1.459-.016zM8 4.667a3.333 3.333 0 1 0 0 6.666 3.333 3.333 0 0 0 0-6.666M8 6a2 2 0 1 1 0 4 2 2 0 0 1 0-4m3.5-2.333a.834.834 0 1 0 .001 1.667.834.834 0 0 0 0-1.667" fill="url(#a)"/><defs><radialGradient id="a" cx="0" cy="0" r="1" gradientUnits="userSpaceOnUse" gradientTransform="matrix(0 -13.2138 12.2899 0 4.876 15.694)"><stop stop-color="#fd5"/><stop offset=".5" stop-color="#ff543e"/><stop offset="1" stop-color="#c837ab"/></radialGradient></defs></svg>