<svg width="16" height="16" viewBox="0 0 16 16" fill="none" xmlns="http://www.w3.org/2000/svg"><path d="M8 1.333c-3.666 0-6.666 3-6.666 6.667s3 6.667 6.667 6.667 6.666-3 6.666-6.667a6.665 6.665 0 0 0-6.666-6.667m2.5 9.767c-1.566-.967-3.533-1.167-5.867-.634-.232.068-.432-.1-.499-.3-.067-.233.1-.433.3-.5 2.533-.567 4.733-.333 6.467.734.233.1.266.366.167.567-.133.2-.367.266-.567.133m.667-1.8c-1.8-1.1-4.533-1.433-6.633-.767-.266.067-.567-.066-.633-.333s.066-.567.333-.634c2.433-.733 5.433-.365 7.5.9.2.101.3.434.134.667-.167.234-.467.334-.701.167M4.2 6.5a.626.626 0 0 1-.767-.4c-.1-.334.1-.667.4-.767 2.367-.7 6.267-.567 8.734.9.3.167.4.567.233.867-.167.234-.567.333-.867.167C9.802 6 6.235 5.867 4.202 6.5" fill="#1cd760"/><path d="M10.5 11.1c-1.566-.967-3.533-1.167-5.867-.634-.232.068-.432-.1-.499-.3-.067-.233.1-.433.3-.5 2.533-.566 4.733-.333 6.467.734.233.1.266.366.167.567-.133.2-.367.266-.567.133m.667-1.8c-1.8-1.1-4.533-1.433-6.633-.767-.266.067-.567-.066-.633-.333s.066-.567.333-.634c2.433-.733 5.433-.365 7.5.9.2.101.3.434.134.667-.167.234-.467.334-.701.167M4.2 6.5a.626.626 0 0 1-.767-.4c-.1-.334.1-.667.4-.767 2.367-.7 6.267-.567 8.734.9.3.167.4.567.233.867-.167.234-.567.333-.867.167C9.802 6 6.235 5.867 4.202 6.5" fill="#000"/></svg>